<svg width="1000" height="1000" viewBox="0 0 1000 1000" fill="none" xmlns="http://www.w3.org/2000/svg">
<g clip-path="url(#clip0_112_18)">
<ellipse cx="500.5" cy="500.5" rx="299.5" ry="300.5" fill="#F5D109"/>
<g filter="url(#filter0_d_112_18)">
<path fill-rule="evenodd" clip-rule="evenodd" d="M500.5 901C721.138 901 900 721.69 900 500.5C900 279.31 721.138 100 500.5 100C279.862 100 101 279.31 101 500.5C101 721.69 279.862 901 500.5 901ZM500.5 800.875C665.978 800.875 800.125 666.393 800.125 500.5C800.125 334.607 665.978 200.125 500.5 200.125C335.022 200.125 200.875 334.607 200.875 500.5C200.875 666.393 335.022 800.875 500.5 800.875Z" fill="#FFFF00"/>
</g>
<g filter="url(#filter1_d_112_18)">
<path d="M539.502 465.929V380.15C552.046 382.917 563.625 387.246 572.324 392.508C577.455 395.608 583.312 397.246 589.272 397.246C600.734 397.246 611.2 391.4 617.264 381.613L618.726 379.256C623.371 371.757 624.87 362.525 622.833 353.929C620.804 345.329 615.334 337.773 607.831 333.193C589.044 321.729 564.54 313.217 539.502 309.357V292.256C539.502 273.919 524.705 259 506.519 259H503.258C485.069 259 470.271 273.917 470.271 292.256V311.062C413.764 322.552 379.039 359.246 379.039 408.292C379.039 481.589 439.951 507.058 470.271 517.419V613.621C451.218 608.448 433.543 598.75 421.503 586.623C415.273 580.351 406.997 576.9 398.19 576.9C389.383 576.9 381.105 580.355 374.873 586.632L372.671 588.85C366.459 595.105 362.938 603.769 363.001 612.631C363.07 621.487 366.727 630.098 373.037 636.263C398.397 661.028 433.448 678.486 470.269 684.891V708.747C470.269 727.087 485.067 742 503.256 742H506.517C524.703 742 539.5 727.087 539.5 708.747V684.195C600.493 672.49 637.996 632.996 637.996 579.682C638.572 502.122 575.682 477.577 539.502 465.929ZM470.273 441.491C452.013 431.658 448.264 422.006 448.264 408.294C448.264 397.159 455.656 388.808 470.273 383.373V441.491ZM568.767 579.462C568.767 594.77 558.936 605.744 539.502 612.179V540.453C561.783 550.305 568.93 560.518 568.767 579.26V579.462Z" fill="#FFFF00"/>
</g>
</g>
<defs>
<filter id="filter0_d_112_18" x="101" y="100" width="810" height="812" filterUnits="userSpaceOnUse" color-interpolation-filters="sRGB">
<feFlood flood-opacity="0" result="BackgroundImageFix"/>
<feColorMatrix in="SourceAlpha" type="matrix" values="0 0 0 0 0 0 0 0 0 0 0 0 0 0 0 0 0 0 127 0" result="hardAlpha"/>
<feOffset dx="7" dy="7"/>
<feGaussianBlur stdDeviation="2"/>
<feComposite in2="hardAlpha" operator="out"/>
<feColorMatrix type="matrix" values="0 0 0 0 0 0 0 0 0 0 0 0 0 0 0 0 0 0 0.25 0"/>
<feBlend mode="normal" in2="BackgroundImageFix" result="effect1_dropShadow_112_18"/>
<feBlend mode="normal" in="SourceGraphic" in2="effect1_dropShadow_112_18" result="shape"/>
</filter>
<filter id="filter1_d_112_18" x="363" y="259" width="288" height="495" filterUnits="userSpaceOnUse" color-interpolation-filters="sRGB">
<feFlood flood-opacity="0" result="BackgroundImageFix"/>
<feColorMatrix in="SourceAlpha" type="matrix" values="0 0 0 0 0 0 0 0 0 0 0 0 0 0 0 0 0 0 127 0" result="hardAlpha"/>
<feOffset dx="9" dy="8"/>
<feGaussianBlur stdDeviation="2"/>
<feComposite in2="hardAlpha" operator="out"/>
<feColorMatrix type="matrix" values="0 0 0 0 0 0 0 0 0 0 0 0 0 0 0 0 0 0 0.25 0"/>
<feBlend mode="normal" in2="BackgroundImageFix" result="effect1_dropShadow_112_18"/>
<feBlend mode="normal" in="SourceGraphic" in2="effect1_dropShadow_112_18" result="shape"/>
</filter>
<clipPath id="clip0_112_18">
<rect width="1000" height="1000" fill="white"/>
</clipPath>
</defs>
</svg>
